<svg width="1440" height="1608" viewBox="0 0 1440 1608" fill="none" xmlns="http://www.w3.org/2000/svg">
<path d="M1893.37 1024.43C1876.35 1019.02 1859.33 1013.62 1842.32 1008.21C1826.38 1003.14 1810.33 998.098 1794.18 993.281C1718.93 970.767 1641.37 952.866 1562.53 941.847C1428.99 923.495 1293.72 922.003 1160.32 901.914C1056.31 885.726 947.907 855.192 875.723 791.253C811.995 734.424 784.76 659.88 713.357 607.998C627.665 548.351 510.564 529.516 401.164 514.781C296.91 501.773 191.914 495.087 87.0933 490.029C76.1966 489.507 65.2902 489.006 54.4437 488.51C30.2466 487.4 6.0495 486.291 -18.1476 485.181C-18.5217 485.164 -18.8803 485.036 -19.1446 484.824C-19.4089 484.612 -19.5574 484.335 -19.5572 484.052C-19.557 483.77 -19.4081 483.506 -19.1435 483.319C-18.8788 483.132 -18.5201 483.036 -18.146 483.054C-18.146 483.054 -18.146 483.054 -18.146 483.054C6.05104 484.188 30.2481 485.322 54.4451 486.455C65.2916 486.962 76.2013 487.475 87.1018 488.008C191.969 493.175 297.028 499.969 401.405 513.098C510.936 527.983 628.313 546.885 714.566 607.038C786.364 659.403 813.413 733.985 876.787 790.584C948.492 854.281 1056.58 884.906 1160.46 901.174C1293.7 921.378 1429.02 923.013 1562.59 941.505C1641.45 952.609 1719 970.592 1794.22 993.182C1810.37 998.016 1826.42 1003.07 1842.34 1008.16C1859.35 1013.58 1876.36 1019 1893.37 1024.43Z" fill="#56D867" fill-opacity="0.5"/>
<path d="M1825.25 1073.73C1808.24 1068.33 1791.22 1062.92 1774.2 1057.52C1758.27 1052.45 1742.22 1047.4 1726.07 1042.59C1650.81 1020.07 1573.26 1002.17 1494.42 991.153C1360.88 972.801 1225.61 971.309 1092.2 951.221C988.194 935.033 879.794 904.499 807.61 840.559C743.882 783.73 716.646 709.187 645.243 657.304C559.551 597.657 442.451 578.823 333.05 564.087C228.797 551.08 123.801 544.394 18.98 539.335C8.08336 538.814 -2.8231 538.312 -13.6696 537.816C-37.8667 536.707 -62.0638 535.597 -86.2608 534.488C-86.6349 534.471 -86.9935 534.342 -87.2579 534.131C-87.5222 533.919 -87.6707 533.641 -87.6705 533.359C-87.6703 533.077 -87.5214 532.813 -87.2568 532.625C-86.9921 532.438 -86.6334 532.343 -86.2593 532.361C-86.2593 532.361 -86.2593 532.361 -86.2593 532.361C-62.0622 533.494 -37.8652 534.628 -13.6682 535.762C-2.82172 536.269 8.08802 536.782 18.9886 537.315C123.855 542.481 228.915 549.275 333.291 562.405C442.823 577.29 560.2 596.191 646.452 656.344C718.25 708.71 745.3 783.292 808.674 839.89C880.379 903.588 988.464 934.213 1092.35 950.481C1225.59 970.685 1360.9 972.32 1494.47 990.812C1573.34 1001.92 1650.88 1019.9 1726.11 1042.49C1742.26 1047.32 1758.3 1052.38 1774.23 1057.47C1791.24 1062.89 1808.24 1068.31 1825.25 1073.73Z" fill="#56D867" fill-opacity="0.5"/>
<path d="M1757.14 1123.04C1740.12 1117.64 1723.1 1112.23 1706.09 1106.83C1690.16 1101.75 1674.1 1096.71 1657.95 1091.9C1582.7 1069.38 1505.14 1051.48 1426.3 1040.46C1292.76 1022.11 1157.49 1020.62 1024.09 1000.53C920.079 984.34 811.679 953.807 739.495 889.867C675.766 833.038 648.531 758.495 577.128 706.612C491.436 646.965 374.336 628.13 264.935 613.395C160.682 600.387 55.6855 593.701 -49.1352 588.643C-60.0319 588.122 -70.9383 587.62 -81.7848 587.124C-105.982 586.014 -130.179 584.905 -154.376 583.796C-154.75 583.779 -155.109 583.65 -155.373 583.438C-155.637 583.227 -155.786 582.949 -155.786 582.667C-155.786 582.384 -155.637 582.12 -155.372 581.933C-155.107 581.746 -154.749 581.651 -154.375 581.668C-154.375 581.668 -154.375 581.668 -154.375 581.668C-130.177 582.802 -105.98 583.936 -81.7835 585.07C-70.937 585.577 -60.0272 586.09 -49.1267 586.622C55.7402 591.789 160.799 598.583 265.176 611.713C374.707 626.597 492.085 645.499 578.337 705.652C650.135 758.017 677.185 832.6 740.558 889.198C812.263 952.895 920.349 983.52 1024.23 999.788C1157.48 1019.99 1292.79 1021.63 1426.36 1040.12C1505.22 1051.22 1582.77 1069.21 1658 1091.8C1674.14 1096.63 1690.19 1101.69 1706.11 1106.77C1723.12 1112.2 1740.13 1117.62 1757.14 1123.04Z" fill="#56D867" fill-opacity="0.5"/>
</svg>
